<?xml version="1.0" standalone="no"?>
<!DOCTYPE svg PUBLIC "-//W3C//DTD SVG 20010904//EN"
 "http://www.w3.org/TR/2001/REC-SVG-20010904/DTD/svg10.dtd">
<svg version="1.0" xmlns="http://www.w3.org/2000/svg"
 width="512.000000pt" height="512.000000pt" viewBox="0 0 512.000000 512.000000"
 preserveAspectRatio="xMidYMid meet">

<g transform="translate(0.000000,512.000000) scale(0.100000,-0.100000)"
fill="#000000" stroke="none">
<path d="M2762 3638 c-35 -35 2 -88 61 -88 66 0 190 -21 272 -47 379 -118 632
-427 678 -827 14 -122 20 -136 63 -136 40 0 47 23 41 128 -8 154 -59 319 -138
454 -116 196 -327 376 -539 457 -148 58 -405 92 -438 59z"/>
<path d="M2777 3355 c-12 -6 -23 -21 -25 -34 -6 -40 22 -58 101 -64 177 -16
304 -74 428 -197 127 -126 181 -236 198 -405 9 -92 21 -115 57 -115 56 0 67
58 38 198 -57 279 -259 502 -536 592 -80 26 -231 40 -261 25z"/>
<path d="M1692 3295 c-56 -24 -202 -181 -244 -260 -55 -105 -71 -180 -65 -300
6 -120 26 -181 103 -320 137 -245 283 -436 483 -636 207 -206 378 -334 636
-477 147 -81 216 -104 340 -110 178 -8 296 37 449 174 130 115 157 172 120
250 -16 34 -421 431 -461 452 -30 16 -88 15 -121 -2 -15 -8 -58 -47 -97 -86
-89 -92 -141 -130 -176 -130 -26 0 -75 30 -200 119 -39 28 -50 31 -68 22 -27
-15 -44 -47 -33 -66 18 -33 198 -155 250 -171 47 -14 57 -14 105 0 43 13 70
33 162 120 61 58 115 105 122 106 7 0 104 -91 217 -201 147 -144 206 -208 206
-224 0 -36 -143 -166 -231 -209 -164 -80 -288 -74 -484 24 -427 211 -822 582
-1074 1008 -137 231 -164 319 -142 454 18 111 62 189 159 286 48 47 91 82 103
82 24 0 429 -395 429 -419 0 -8 -45 -60 -101 -114 -169 -165 -178 -222 -60
-385 55 -75 78 -90 110 -73 40 22 35 47 -23 134 -82 121 -82 124 55 263 107
108 112 115 117 162 3 32 -1 59 -11 78 -21 40 -437 441 -471 454 -36 13 -64
12 -104 -5z"/>
<path d="M2772 3064 c-47 -32 -15 -94 49 -94 19 0 58 -7 87 -14 150 -40 257
-166 278 -328 7 -60 27 -88 60 -88 108 0 31 283 -112 408 -61 55 -152 101
-231 117 -87 19 -104 18 -131 -1z"/>
<path d="M2772 2774 c-47 -33 -16 -83 61 -99 30 -6 67 -56 67 -90 0 -29 19
-45 51 -45 39 0 52 22 46 75 -7 66 -48 122 -110 151 -61 28 -84 30 -115 8z"/>
<path d="M2204 2115 c-15 -23 -15 -27 0 -50 20 -30 56 -33 79 -7 22 24 21 45
-1 65 -27 24 -59 21 -78 -8z"/>
</g>
</svg>
